<svg width="25" height="28" viewBox="0 0 25 28" fill="none" xmlns="http://www.w3.org/2000/svg">
<path d="M1.336 23.152C1.336 22.3627 1.4 21.584 1.528 20.816C1.656 20.0267 1.76267 19.2373 1.848 18.448C1.99733 17.0613 2.008 15.6853 1.88 14.32C1.752 12.9333 1.58133 11.5573 1.368 10.192C1.048 8.144 1.208 6.21333 1.848 4.4C2.04 3.84533 2.296 3.30133 2.616 2.768C2.95733 2.21333 3.256 1.648 3.512 1.072C3.55467 0.965332 3.64 0.901332 3.768 0.879999C3.896 0.837332 4.024 0.815998 4.152 0.815998C4.83467 0.794665 5.51733 0.805332 6.2 0.848C6.88267 0.890666 7.55467 0.997332 8.216 1.168C8.472 1.232 8.74933 1.264 9.048 1.264C10.6267 1.22133 12.152 1.37067 13.624 1.712C15.096 2.05333 16.4933 2.68267 17.816 3.6C18.264 3.89867 18.7333 4.176 19.224 4.432C19.736 4.688 20.2267 4.96533 20.696 5.264C21.848 5.94667 22.584 6.928 22.904 8.208C23.1813 9.27467 23.448 10.352 23.704 11.44C23.9813 12.528 24.0667 13.6373 23.96 14.768C23.8747 15.7707 23.6187 16.688 23.192 17.52C22.7867 18.352 22.1253 19.0453 21.208 19.6C20.632 19.9413 20.056 20.2933 19.48 20.656C18.904 21.0187 18.3067 21.3493 17.688 21.648C17.176 21.9253 16.7173 22.3093 16.312 22.8C15.9067 23.2693 15.4907 23.7173 15.064 24.144C14.936 24.272 14.808 24.4107 14.68 24.56C14.5733 24.688 14.4453 24.784 14.296 24.848C13.464 25.1253 12.6427 25.456 11.832 25.84C11.0427 26.224 10.232 26.5653 9.4 26.864C8.58933 27.1627 7.72533 27.344 6.808 27.408C5.93333 27.472 5.06933 27.3973 4.216 27.184C3.36267 26.9707 2.49867 26.8107 1.624 26.704C1.38933 26.6613 1.25067 26.544 1.208 26.352C1.16533 26.16 1.144 25.968 1.144 25.776C1.18667 25.3493 1.21867 24.9227 1.24 24.496C1.28267 24.048 1.31467 23.6 1.336 23.152ZM6.008 3.6C6.584 3.68533 7.16 3.76 7.736 3.824C8.312 3.888 8.87733 3.97333 9.432 4.08C10.84 4.35733 12.1413 4.82667 13.336 5.488C14.552 6.128 15.4907 7.12 16.152 8.464C17.0267 10.2773 17.6027 12.1653 17.88 14.128C18.1573 16.0693 18.0827 18.0533 17.656 20.08C17.6347 20.208 17.592 20.3467 17.528 20.496C17.464 20.6453 17.4853 20.7733 17.592 20.88C17.6987 20.9653 17.816 20.9867 17.944 20.944C18.0933 20.88 18.2427 20.8267 18.392 20.784C19.3947 20.4427 20.1733 19.92 20.728 19.216C21.304 18.512 21.6667 17.648 21.816 16.624C22.072 14.8107 22.008 13.072 21.624 11.408C21.24 9.72267 20.6213 8.09067 19.768 6.512C19.4267 5.82933 18.9787 5.296 18.424 4.912C17.8907 4.528 17.24 4.24 16.472 4.048C15.256 3.70667 14.0187 3.41867 12.76 3.184C11.5227 2.928 10.3173 2.52267 9.144 1.968C8.504 1.648 7.832 1.41333 7.128 1.264C6.424 1.11467 5.69867 1.08267 4.952 1.168C4.376 1.25333 3.97067 1.424 3.736 1.68C3.50133 1.91467 3.36267 2.32 3.32 2.896C3.32 3.36533 3.544 3.58933 3.992 3.568C4.33333 3.568 4.664 3.57867 4.984 3.6C5.32533 3.6 5.66667 3.6 6.008 3.6ZM10.328 1.68C10.4987 1.85067 10.8507 2.04267 11.384 2.256C11.9387 2.448 12.5573 2.64 13.24 2.832C13.9227 3.024 14.5733 3.184 15.192 3.312C15.832 3.41866 16.3227 3.472 16.664 3.472C15.704 2.74667 14.68 2.29867 13.592 2.128C12.504 1.95733 11.416 1.808 10.328 1.68ZM2.584 23.216C2.60533 23.5787 2.59467 23.984 2.552 24.432C2.50933 24.8587 2.456 25.2853 2.392 25.712C2.37067 25.8613 2.34933 26 2.328 26.128C2.328 26.2773 2.456 26.3733 2.712 26.416C3.45867 26.544 4.19467 26.6827 4.92 26.832C5.64533 27.0027 6.392 27.0453 7.16 26.96C8.33333 26.832 9.38933 26.4907 10.328 25.936C11.2667 25.3813 12.1947 24.7733 13.112 24.112C14.1787 23.3653 14.968 22.5333 15.48 21.616C16.0133 20.6773 16.3547 19.6747 16.504 18.608C16.6533 17.5413 16.7067 16.4533 16.664 15.344C16.5787 13.5947 16.1413 12.0053 15.352 10.576C14.5627 9.14667 13.5173 7.84533 12.216 6.672C10.9787 5.54133 9.624 4.79467 8.152 4.432C6.70133 4.06933 5.16533 3.96267 3.544 4.112C2.81867 4.176 2.456 4.58133 2.456 5.328C2.456 6.43733 2.47733 7.55733 2.52 8.688C2.584 9.79733 2.584 10.9173 2.52 12.048C2.43467 13.8827 2.44533 15.728 2.552 17.584C2.68 19.44 2.69067 21.3173 2.584 23.216ZM19.832 5.392C20.3867 6.416 20.8667 7.44 21.272 8.464C21.6773 9.488 21.9867 10.5333 22.2 11.6C22.392 12.6453 22.4987 13.712 22.52 14.8C22.5413 15.888 22.3813 17.0293 22.04 18.224C22.5733 17.6053 22.9467 16.8267 23.16 15.888C23.3947 14.928 23.48 13.904 23.416 12.816C23.352 11.728 23.16 10.6827 22.84 9.68C22.5413 8.656 22.136 7.76 21.624 6.992C21.112 6.224 20.5147 5.69066 19.832 5.392ZM16.984 13.52C16.8987 12.3893 16.6533 11.2587 16.248 10.128C15.864 8.976 15.288 7.97333 14.52 7.12C13.752 6.26667 12.7813 5.712 11.608 5.456C12.952 6.56533 14.0827 7.78133 15 9.104C15.9387 10.4053 16.6 11.8773 16.984 13.52ZM7.064 7.984C8.472 8.06933 9.70933 8.45333 10.776 9.136C11.8427 9.81867 12.6853 10.6933 13.304 11.76C13.9227 12.8267 14.232 14 14.232 15.28C14.232 16.1547 13.9973 17.008 13.528 17.84C13.08 18.672 12.4613 19.3973 11.672 20.016C10.8827 20.6347 10.008 21.0613 9.048 21.296C8.25867 21.5093 7.43733 21.6693 6.584 21.776C6.05067 21.8187 5.67733 21.744 5.464 21.552C5.25067 21.36 5.13333 21.008 5.112 20.496C5.06933 19.1093 5.02667 17.7227 4.984 16.336C4.96267 14.9493 4.93067 13.5627 4.888 12.176C4.888 11.8133 4.888 11.4507 4.888 11.088C4.90933 10.7253 4.86667 10.3627 4.76 10C4.58933 9.38133 4.6 8.912 4.792 8.592C5.00533 8.272 5.44267 8.06933 6.104 7.984C6.31733 7.96267 6.50933 7.96267 6.68 7.984C6.872 7.984 7 7.984 7.064 7.984ZM13.624 15.888C13.752 14.1813 13.432 12.784 12.664 11.696C11.9173 10.5867 10.9467 9.70133 9.752 9.04C8.792 8.48533 7.704 8.26133 6.488 8.368C6.04 8.41067 5.70933 8.54933 5.496 8.784C5.304 8.99733 5.26133 9.34933 5.368 9.84C5.432 10.1173 5.464 10.3947 5.464 10.672C5.464 10.928 5.45333 11.2053 5.432 11.504C5.34667 12.9973 5.37867 14.5013 5.528 16.016C5.67733 17.5093 5.73067 19.0133 5.688 20.528C5.64533 21.168 5.95467 21.424 6.616 21.296C7.08533 21.232 7.55467 21.1573 8.024 21.072C8.49333 20.9867 8.952 20.8693 9.4 20.72C10.6587 20.2933 11.64 19.664 12.344 18.832C13.0693 17.9787 13.496 16.9973 13.624 15.888ZM6.872 16.208C6.808 15.5467 6.776 14.864 6.776 14.16C6.79733 13.456 6.79733 12.7413 6.776 12.016C6.75467 11.2693 6.62667 10.5333 6.392 9.808C6.30667 9.53067 6.34933 9.38133 6.52 9.36C6.712 9.33867 6.872 9.328 7 9.328C7.72533 9.28533 8.408 9.38133 9.048 9.616C9.688 9.82933 10.2427 10.2347 10.712 10.832C11.48 11.792 11.8427 12.6773 11.8 13.488C11.7787 14.2773 11.3947 15.1627 10.648 16.144C10.3067 16.6133 9.912 17.008 9.464 17.328C9.016 17.6267 8.52533 17.8827 7.992 18.096C7.45867 18.3093 7.11733 18.3733 6.968 18.288C6.84 18.1813 6.78667 17.8507 6.808 17.296C6.808 17.168 6.808 17.0293 6.808 16.88C6.82933 16.7093 6.85067 16.4853 6.872 16.208ZM7.96 9.84C7.74667 9.79733 7.55467 9.808 7.384 9.872C7.23467 9.936 7.17067 10.1493 7.192 10.512C7.256 11.4293 7.29867 12.3573 7.32 13.296C7.36267 14.2133 7.39467 15.1413 7.416 16.08C7.43733 16.4427 7.52267 16.656 7.672 16.72C7.82133 16.7627 8.024 16.7093 8.28 16.56C8.77067 16.2613 9.208 15.9307 9.592 15.568C9.99733 15.184 10.328 14.7253 10.584 14.192C10.7333 13.8933 10.872 13.616 11 13.36C11.1493 13.0827 11.1813 12.7733 11.096 12.432C10.9467 11.8347 10.552 11.28 9.912 10.768C9.29333 10.2347 8.64267 9.92533 7.96 9.84ZM16.472 21.168C16.7493 20.8907 16.9733 20.4853 17.144 19.952C17.3147 19.4187 17.4213 18.8533 17.464 18.256C17.5067 17.6587 17.4533 17.136 17.304 16.688C17.2187 17.4347 17.1227 18.192 17.016 18.96C16.9093 19.7067 16.728 20.4427 16.472 21.168Z" fill="#FFFEFE"/>
</svg>
