<svg xmlns="http://www.w3.org/2000/svg" version="1.1" xmlns:xlink="http://www.w3.org/1999/xlink" xmlns:svgjs="http://svgjs.dev/svgjs" width="1500" height="1500" viewBox="0 0 1500 1500"><g transform="matrix(1,0,0,1,0,0)"><svg viewBox="0 0 280 280" data-background-color="#ffffff" preserveAspectRatio="xMidYMid meet" height="1500" width="1500" xmlns="http://www.w3.org/2000/svg" xmlns:xlink="http://www.w3.org/1999/xlink"><g id="tight-bounds" transform="matrix(1,0,0,1,0,0)"><svg viewBox="0 0 280 280" height="280" width="280"><g><svg viewBox="0 0 280 280" height="280" width="280"><g><svg viewBox="0 0 280 280" height="280" width="280"><g id="textblocktransform"><svg viewBox="0 0 280 280" height="280" width="280" id="textblock"><g><svg viewBox="0 0 280 280" height="280" width="280"><g transform="matrix(1,0,0,1,74.00336708925556,76.75610043405894)"><svg viewBox="0 0 131.99326582148888 126.48779913188211" height="126.48779913188211" width="131.99326582148888"><g id="icon-0"><svg xmlns="http://www.w3.org/2000/svg" xmlns:xlink="http://www.w3.org/1999/xlink" version="1.1" x="0" y="0" viewBox="2.768450358491991 3.3229405911473533 26.460830646853736 25.357143873146665" enable-background="new 0 0 32 32" xml:space="preserve" height="126.48779913188211" width="131.99326582148888" class="icon-jxe-0" data-fill-palette-color="accent" id="jxe-0"><path d="M29.131 12.859A2 2 0 0 0 27.229 11.477H27.213L20.063 11.533 17.91 4.717A2 2 0 0 0 14.098 4.717L11.941 11.533 4.791 11.477H4.773A1.999 1.999 0 0 0 3.609 15.105L9.424 19.263 7.164 26.045A2 2 0 0 0 7.887 28.295 1.99 1.99 0 0 0 10.251 28.287L16.002 24.04 21.753 28.287A2.002 2.002 0 0 0 24.84 26.045L22.577 19.263 28.392 15.105A2 2 0 0 0 29.131 12.859M20.212 18.496L22.941 26.68 16.001 21.555 9.06 26.68 11.789 18.496 4.77 13.479 13.397 13.544 16 5.32 18.604 13.545 27.231 13.48z" fill="#000000" data-fill-palette-color="accent"></path></svg></g></svg></g><g id="text-0"><path d="M26.57 91.753l4.831 1.339 2.284-6.342c-0.651-0.235-1.085-0.142-1.301 0.278v0c-0.076 0.11-0.146 0.254-0.21 0.433v0l-0.797 2.213-27.737-9.891-2.715 7.54 1.102 0.396 1.518-4.215 10.825 3.899c-2.119 0.875-3.62 2.538-4.503 4.99v0c-1.171 3.251-0.608 6.227 1.687 8.93v0c1.414 1.642 3.23 2.862 5.446 3.661v0c3.666 1.32 6.757 1.131 9.273-0.568v0c1.383-0.974 2.356-2.243 2.919-3.808v0c1.104-3.246 0.23-6.198-2.622-8.855zM17.832 101.019v0c-4.171-1.502-6.472-3.597-6.903-6.284v0c-0.134-0.849-0.046-1.705 0.264-2.567v0c0.775-2.152 2.481-3.273 5.118-3.363v0c1.427-0.056 2.984 0.22 4.67 0.827v0c3.545 1.276 5.796 3.09 6.753 5.44v0c0.515 1.253 0.555 2.487 0.117 3.701v0c-0.874 2.427-2.922 3.475-6.143 3.144v0c-1.198-0.1-2.49-0.399-3.876-0.898z" fill="#000000" data-fill-palette-color="primary"></path><path d="M59.906 52.948v0c1.654-1.762 1.503-3.733-0.453-5.914v0c-0.115-0.155-0.23-0.286-0.344-0.392v0l-0.88 0.863c1.524 1.729 1.955 2.971 1.292 3.727v0c-0.607 0.557-1.493 0.306-2.661-0.752v0l-7.245-6.802c-3.276-3.076-6.544-3.061-9.803 0.043v0c-0.195 0.208-0.388 0.413-0.578 0.616v0c-2.411 2.569-3.432 4.846-3.062 6.832v0c0.135 0.639 0.399 1.142 0.79 1.51v0c0.708 0.664 1.43 0.718 2.166 0.162v0c0.132-0.091 0.251-0.193 0.357-0.307v0c0.497-0.53 0.533-1.232 0.107-2.106v0c-0.544-1.116-0.845-1.808-0.901-2.075v0c-0.165-0.974 0.182-1.919 1.041-2.836v0c2.16-2.023 4.383-2.026 6.67-0.009v0l2.168 2.035c-5.055 5.385-6.826 9.518-5.314 12.4v0c0.305 0.547 0.711 1.058 1.216 1.532v0c1.742 1.635 3.653 1.986 5.731 1.051v0c0.833-0.382 1.573-0.916 2.218-1.605v0c1.57-1.673 2.321-3.617 2.251-5.834v0c-0.05-0.82-0.217-1.559-0.502-2.217v0c2.299 1.637 4.211 1.663 5.736 0.078zM52.114 58.496v0c-1.315 1.401-2.821 1.607-4.518 0.618v0c-0.382-0.238-0.769-0.54-1.16-0.907v0c-1.534-1.44-1.68-3.234-0.436-5.381v0c0.675-1.135 1.841-2.606 3.498-4.411v0l2.747 2.578c1.254 1.829 1.579 3.708 0.977 5.639v0c-0.269 0.743-0.639 1.365-1.108 1.864z" fill="#000000" data-fill-palette-color="primary"></path><path d="M89.335 40.977v0c-0.459 0.204-0.956 0.013-1.492-0.574v0c-0.7-0.722-1.239-1.117-1.619-1.186v0c-0.332-0.061-0.671-0.014-1.018 0.141v0c-0.918 0.408-1.271 1.044-1.058 1.907v0c0.021 0.132 0.051 0.241 0.09 0.328v0c0.485 1.092 1.468 1.598 2.949 1.52v0c0.679-0.027 1.332-0.18 1.958-0.458v0c2.27-1.009 3.618-3.276 4.042-6.8v0c0.198-1.425 0.266-3.053 0.204-4.882v0l-0.612-18.548c-0.067-0.936 0.045-1.536 0.338-1.799v0c0.177-0.153 0.393-0.286 0.647-0.399v0c0.577-0.256 0.838-0.562 0.784-0.917v0c-0.019-0.192-0.086-0.419-0.201-0.68v0l-6.551 2.912 0.497 1.116 3.145-1.397 0.616 16.228-12.024-11.158 2.884-1.282-0.496-1.117-8.402 3.735 0.496 1.116 2.112-0.939 15.39 13.741c0.078 4.504-0.453 7.37-1.595 8.598v0c-0.326 0.353-0.688 0.618-1.084 0.794z" fill="#000000" data-fill-palette-color="primary"></path><path d="M134.901 20.373v0c2.169-0.123 3.592-0.863 4.27-2.221v0c0.251-0.483 0.361-1.01 0.328-1.579v0c-0.075-1.315-1.094-2.389-3.058-3.222v0c-0.419-0.194-1.111-0.471-2.077-0.831v0c-2.629-0.918-4.394-1.824-5.294-2.718v0c-0.973-0.978-1.499-2.159-1.578-3.542v0c-0.123-2.162 0.984-3.751 3.319-4.767v0c1.075-0.469 2.256-0.74 3.544-0.813v0c2.067-0.117 3.878 0.219 5.432 1.007v0c-0.052-0.908 0.14-1.436 0.573-1.582v0c0.188-0.045 0.39-0.073 0.607-0.086v0l0.334 5.886-1.22 0.07c-0.225-2.884-1.907-4.253-5.047-4.11v0c-2.352 0.133-3.77 0.907-4.253 2.322v0c-0.141 0.382-0.201 0.776-0.178 1.183v0c0.077 1.349 1.114 2.439 3.113 3.271v0c0.453 0.199 1.161 0.458 2.124 0.777v0c2.6 0.893 4.351 1.786 5.252 2.68v0c0.965 0.952 1.487 2.119 1.565 3.501v0c0.144 2.535-1.109 4.302-3.758 5.302v0c-1.017 0.404-2.136 0.641-3.356 0.711v0c-2.258 0.101-4.252-0.35-5.982-1.354v0c0.046 0.813-0.13 1.296-0.53 1.448v0c-0.188 0.038-0.408 0.064-0.658 0.078v0l-0.406-7.147 1.322-0.075c0.291 4.043 2.161 5.98 5.612 5.811z" fill="#000000" data-fill-palette-color="primary"></path><path d="M191.367 31.272v0l-2.215-0.792 6.349-17.746-6.97-2.494-0.398 1.112 3.643 1.304-3.426 9.577c-0.954 2.665-2.585 4.284-4.896 4.856v0c-1.026 0.267-1.983 0.242-2.871-0.075v0c-2.429-0.869-3.391-2.612-2.887-5.229v0c0.091-0.436 0.221-0.891 0.39-1.364v0l4.414-12.338-6.739-2.412-0.398 1.112 3.413 1.222-3.777 10.555c-1.779 5.074-0.574 8.374 3.617 9.902v0c2.218 0.793 4.359 0.543 6.422-0.752v0c0.773-0.488 1.471-1.089 2.094-1.803v0l-1.302 4.639 6.251 2.236c0.233-0.652 0.14-1.086-0.281-1.301v0c-0.11-0.075-0.254-0.145-0.433-0.209z" fill="#000000" data-fill-palette-color="primary"></path><path d="M230.344 36.839l2.473 2.524 0.844-0.827-6.528-6.663-0.843 0.827 1.482 1.513-7.148 15.256c-0.819 1.724-1.089 2.934-0.808 3.628v0c0.15 0.328 0.404 0.674 0.76 1.037v0l0.655 0.67 11.688-5.706-4.25 8.583c-0.838 1.657-1.152 2.82-0.943 3.49v0c0.136 0.313 0.389 0.659 0.759 1.037v0l0.528 0.538 16.413-8.097c0.917-0.451 1.573-0.567 1.969-0.347v0c0.133 0.097 0.264 0.212 0.393 0.342v0c0.485 0.495 0.918 0.621 1.299 0.381v0c0.135-0.085 0.271-0.194 0.407-0.327v0l-4.881-4.983-0.844 0.827 2.309 2.357-15.271 7.634 7.746-15.315 2.309 2.356 0.844-0.826-5.074-5.179-2.795 5.703-11.013 5.316z" fill="#000000" data-fill-palette-color="primary"></path><path d="M252.948 106.159v0c0.835 2.268 2.665 3.016 5.491 2.244v0c0.19-0.034 0.358-0.078 0.505-0.132v0l-0.378-1.174c-2.228 0.589-3.532 0.417-3.911-0.514v0c-0.226-0.792 0.395-1.473 1.864-2.042v0l9.326-3.432c4.217-1.552 5.668-4.48 4.352-8.784v0c-0.098-0.268-0.196-0.532-0.292-0.793v0c-1.217-3.306-2.796-5.239-4.738-5.797v0c-0.632-0.165-1.2-0.155-1.703 0.03v0c-0.911 0.335-1.283 0.957-1.115 1.864v0c0.022 0.158 0.06 0.311 0.114 0.457v0c0.251 0.682 0.863 1.028 1.836 1.039v0c1.242 0.013 1.995 0.054 2.259 0.123v0c0.945 0.289 1.635 1.022 2.068 2.201v0c0.841 2.837-0.152 4.826-2.979 5.968v0l-2.79 1.027c-2.551-6.931-5.453-10.366-8.707-10.304v0c-0.626 0.028-1.264 0.161-1.914 0.401v0c-2.242 0.825-3.411 2.377-3.506 4.653v0c-0.032 0.916 0.115 1.817 0.441 2.702v0c0.792 2.153 2.195 3.695 4.208 4.625v0c0.755 0.322 1.491 0.504 2.208 0.544v0c-2.493 1.323-3.373 3.021-2.639 5.094zM251.477 96.708v0c-0.663-1.803-0.173-3.242 1.471-4.317v0c0.384-0.235 0.827-0.445 1.33-0.631v0c1.975-0.727 3.644-0.053 5.007 2.02v0c0.713 1.112 1.505 2.813 2.378 5.103v0l-3.536 1.302c-2.196 0.302-4.023-0.248-5.479-1.651v0c-0.544-0.574-0.934-1.182-1.171-1.826z" fill="#000000" data-fill-palette-color="primary"></path><path d="M17.353 192.9l-4.899 2.224 2.497 6.795c0.694-0.255 0.987-0.63 0.878-1.125v0c-0.015-0.139-0.058-0.304-0.128-0.496v0l-0.875-2.379 29.668-11.014-2.968-8.076-1.195 0.439 1.662 4.52-11.593 4.262c1.142-2.185 1.23-4.593 0.263-7.224v0c-1.281-3.485-3.799-5.543-7.553-6.174v0c-2.301-0.377-4.64-0.128-7.016 0.746v0c-3.925 1.443-6.338 3.733-7.238 6.869v0c-0.471 1.75-0.397 3.465 0.221 5.148v0c1.333 3.43 4.092 5.258 8.276 5.485zM18.15 179.22v0c4.466-1.642 7.808-1.503 10.025 0.416v0c0.689 0.615 1.202 1.381 1.539 2.298v0c0.85 2.313 0.223 4.413-1.882 6.3v0c-1.135 1.025-2.607 1.87-4.417 2.535v0c-3.797 1.396-6.902 1.459-9.313 0.191v0c-1.29-0.676-2.174-1.664-2.652-2.963v0c-0.953-2.593 0.007-4.87 2.881-6.831v0c1.055-0.75 2.328-1.398 3.819-1.946z" fill="#000000" data-fill-palette-color="primary"></path><path d="M44.95 242.645v0c1.788 1.888 3.916 1.849 6.385-0.115v0c0.166-0.111 0.311-0.224 0.434-0.341v0l-0.873-0.996c-1.948 1.527-3.307 1.908-4.079 1.142v0c-0.553-0.682-0.227-1.617 0.977-2.804v0l7.755-7.344c3.504-3.319 3.696-6.824 0.574-10.515v0c-0.21-0.222-0.418-0.441-0.624-0.658v0c-2.6-2.745-4.979-3.979-7.138-3.702v0c-0.694 0.096-1.251 0.343-1.669 0.74v0c-0.759 0.719-0.864 1.491-0.315 2.318v0c0.092 0.147 0.196 0.281 0.313 0.404v0c0.537 0.567 1.286 0.647 2.248 0.242v0c1.234-0.514 1.995-0.791 2.284-0.831v0c1.05-0.116 2.039 0.317 2.968 1.297v0c2.037 2.437 1.9 4.82-0.41 7.149v0l-2.314 2.191c-5.452-5.757-9.773-7.915-12.962-6.474v0c-0.608 0.296-1.181 0.698-1.718 1.206v0c-1.863 1.764-2.36 3.792-1.491 6.082v0c0.354 0.917 0.882 1.745 1.582 2.485v0c1.69 1.784 3.729 2.709 6.119 2.773v0c0.883 0.005 1.687-0.129 2.41-0.402v0c-1.903 2.364-2.055 4.415-0.456 6.153zM39.497 233.94v0c-1.419-1.498-1.543-3.125-0.372-4.879v0c0.275-0.401 0.622-0.799 1.041-1.196v0c1.641-1.554 3.575-1.595 5.802-0.124v0c1.169 0.79 2.672 2.13 4.507 4.02v0l-2.942 2.786c-2.036 1.236-4.071 1.467-6.105 0.691v0c-0.779-0.328-1.422-0.761-1.931-1.298z" fill="#000000" data-fill-palette-color="primary"></path><path d="M74.37 271.945v0c-0.49-0.217-0.695-0.753-0.613-1.607v0c0.068-1.076-0.005-1.791-0.219-2.146v0c-0.191-0.307-0.472-0.543-0.845-0.708v0c-0.987-0.437-1.75-0.255-2.29 0.545v0c-0.086 0.11-0.148 0.209-0.187 0.296v0c-0.519 1.173-0.216 2.324 0.91 3.454v0c0.505 0.52 1.098 0.932 1.781 1.233v0c2.433 1.077 5.21 0.514 8.331-1.69v0c1.272-0.877 2.614-1.998 4.027-3.362v0l14.334-13.865c0.692-0.725 1.252-1.068 1.68-1.027v0c0.239 0.031 0.497 0.109 0.776 0.232v0c0.621 0.275 1.052 0.265 1.294-0.029v0c0.145-0.159 0.279-0.378 0.402-0.657v0l-7.039-3.116-0.532 1.201 3.38 1.497-12.489 12.188 0.217-17.621 3.101 1.373 0.532-1.201-9.023-3.994-0.531 1.201 2.262 1.001 0.156 22.162c-3.528 3.308-6.194 4.953-7.997 4.934v0c-0.511-0.003-0.983-0.101-1.418-0.294z" fill="#000000" data-fill-palette-color="primary"></path><path d="M133.37 278.547v0c2.324 0.142 3.932-0.468 4.825-1.828v0c0.336-0.49 0.522-1.036 0.559-1.638v0c0.086-1.416-0.866-2.692-2.858-3.827v0c-0.426-0.264-1.13-0.647-2.113-1.149v0c-2.695-1.314-4.465-2.503-5.312-3.568v0c-0.908-1.171-1.317-2.498-1.226-3.982v0c0.142-2.324 1.518-3.879 4.131-4.665v0c1.206-0.369 2.5-0.511 3.882-0.426v0c2.222 0.136 4.115 0.724 5.676 1.764v0c0.059-0.976 0.331-1.517 0.813-1.623v0c0.205-0.021 0.423-0.025 0.654-0.011v0l-0.386 6.321-1.311-0.08c0.121-3.107-1.5-4.781-4.866-5.02v0c-2.527-0.154-4.138 0.492-4.831 1.94v0c-0.194 0.396-0.305 0.815-0.331 1.255v0c-0.088 1.443 0.88 2.737 2.905 3.88v0c0.46 0.259 1.183 0.623 2.167 1.091v0c2.656 1.277 4.411 2.449 5.264 3.514v0c0.91 1.137 1.32 2.447 1.229 3.931v0c-0.167 2.731-1.727 4.461-4.682 5.193v0c-1.134 0.305-2.358 0.417-3.673 0.337v0c-2.424-0.182-4.49-0.917-6.2-2.204v0c-0.053 0.874-0.304 1.365-0.753 1.474v0c-0.205 0.021-0.44 0.024-0.705 0.008v0l0.469-7.684 1.412 0.086c-0.198 4.354 1.556 6.658 5.261 6.911z" fill="#000000" data-fill-palette-color="primary"></path><path d="M197.486 265.9v0l-2.393 0.838-6.688-19.116-7.507 2.626 0.417 1.192 3.922-1.372 3.611 10.322c1.004 2.87 0.737 5.323-0.802 7.357v0c-0.678 0.92-1.497 1.549-2.458 1.885v0c-2.608 0.912-4.588 0.102-5.942-2.43v0c-0.219-0.42-0.418-0.886-0.597-1.398v0l-4.648-13.283-7.266 2.543 0.417 1.191 3.681-1.288 3.982 11.38c1.938 5.435 5.174 7.377 9.709 5.826v0c2.39-0.836 4.01-2.496 4.859-4.98v0c0.315-0.93 0.492-1.902 0.534-2.915v0l2.041 4.755 6.737-2.358c-0.244-0.698-0.618-0.996-1.121-0.891v0c-0.139 0.013-0.302 0.052-0.487 0.116z" fill="#000000" data-fill-palette-color="primary"></path><path d="M216.094 231.105l2.674-2.697-0.897-0.889-7.054 7.115 0.896 0.889 1.606-1.62 16.499 7.454c1.861 0.851 3.163 1.119 3.905 0.804v0c0.359-0.17 0.728-0.445 1.106-0.825v0l0.717-0.723-6.325-12.466 9.293 4.439c1.794 0.871 3.048 1.187 3.762 0.949v0c0.335-0.145 0.704-0.421 1.106-0.826v0l0.573-0.578-8.96-17.501c-0.503-0.977-0.636-1.682-0.397-2.115v0c0.095-0.144 0.215-0.289 0.358-0.434v0c0.521-0.525 0.651-0.989 0.39-1.391v0c-0.097-0.144-0.217-0.287-0.362-0.431v0l-5.277 5.322 0.897 0.889 2.495-2.516 8.45 16.294-16.58-8.094 2.495-2.517-0.897-0.889-5.484 5.532 6.161 2.911 5.89 11.747z" fill="#000000" data-fill-palette-color="primary"></path><path d="M273.215 181.622v0c0.915-2.433-0.05-4.33-2.896-5.691v0c-0.172-0.101-0.338-0.181-0.497-0.241v0l-0.514 1.221c2.225 1.083 3.162 2.14 2.812 3.168v0c-0.372 0.796-1.355 0.912-2.949 0.349v0l-9.997-3.76c-4.517-1.699-7.753-0.338-9.706 4.084v0c-0.108 0.286-0.214 0.569-0.319 0.848v0c-1.331 3.539-1.4 6.218-0.206 8.038v0c0.39 0.582 0.856 0.975 1.396 1.178v0c0.978 0.368 1.719 0.124 2.222-0.731v0c0.092-0.147 0.167-0.3 0.227-0.459v0c0.275-0.731 0.019-1.44-0.767-2.126v0c-1.002-0.884-1.584-1.448-1.747-1.691v0c-0.563-0.894-0.607-1.973-0.131-3.237v0c1.3-2.898 3.503-3.817 6.607-2.758v0l2.983 1.122c-2.791 7.421-2.842 12.25-0.151 14.488v0c0.532 0.418 1.144 0.757 1.837 1.017v0c2.402 0.903 4.442 0.463 6.121-1.32v0c0.67-0.72 1.184-1.556 1.542-2.51v0c0.865-2.3 0.804-4.539-0.183-6.716v0c-0.382-0.796-0.854-1.46-1.416-1.99v0c2.958 0.677 4.869-0.083 5.732-2.283zM267.773 190.335v0c-0.726 1.932-2.135 2.754-4.225 2.468v0c-0.481-0.072-0.991-0.21-1.531-0.412v0c-2.116-0.796-2.999-2.517-2.648-5.163v0c0.199-1.397 0.747-3.335 1.641-5.812v0l3.794 1.427c2.002 1.29 3.1 3.019 3.292 5.187v0c0.045 0.844-0.062 1.612-0.323 2.305z" fill="#000000" data-fill-palette-color="primary"></path><path d="M0 139.95c0-6.462 5.238-11.7 11.7-11.7 6.462 0 11.7 5.238 11.7 11.7 0 6.462-5.238 11.7-11.7 11.7-6.462 0-11.7-5.238-11.7-11.7z" fill="#000000" data-fill-palette-color="primary"></path><path d="M256.6 139.95c0-6.462 5.238-11.7 11.7-11.7 6.462 0 11.7 5.238 11.7 11.7 0 6.462-5.238 11.7-11.7 11.7-6.462 0-11.7-5.238-11.7-11.7z" fill="#000000" data-fill-palette-color="primary"></path></g><g id="text-1"></g></svg></g></svg></g></svg></g></svg></g><defs></defs></svg><rect width="280" height="280" fill="none" stroke="none" visibility="hidden"></rect></g></svg></g></svg>