<svg width="66" height="69" viewBox="0 0 66 69" fill="none" xmlns="http://www.w3.org/2000/svg">
<path d="M27.8153 58.2509C26.4964 57.9409 25.5637 57.6124 25.0172 57.2654C24.4973 56.9172 24.2071 56.4647 24.1465 55.908C24.1004 55.4838 24.1553 54.8816 24.3113 54.1014C24.4674 53.3211 24.7155 52.4032 25.0558 51.3477C25.4198 50.2644 25.8522 49.0712 26.353 47.7682C26.8804 46.4639 27.4776 45.063 28.1446 43.5655C27.4492 43.5721 26.8218 43.5887 26.2624 43.6154C25.7268 43.6144 25.2859 43.6221 24.9396 43.6387C25.0561 43.2334 25.4715 42.8671 26.1855 42.5399C26.8996 42.2126 27.8577 41.9137 29.0599 41.6431C29.9112 39.8703 30.8377 38.1738 31.8394 36.5537C32.8678 34.9323 33.9106 33.4435 34.9678 32.0872C36.0222 30.7045 37.0953 29.494 38.1872 28.4558C39.2761 27.3912 40.3349 26.5411 41.3635 25.9057C41.37 25.7189 41.366 25.5592 41.3516 25.4267C41.3638 25.2928 41.367 25.1994 41.3612 25.1464C41.7341 25.1286 42.237 25.1978 42.8698 25.3541C43.5293 25.5091 44.1664 25.7052 44.7813 25.9423C45.4228 26.1781 45.9858 26.431 46.4704 26.701C46.9787 26.9432 47.2696 27.1558 47.343 27.3388C46.6314 28.9184 46.0168 31.2661 45.4992 34.382C44.9786 37.4714 44.671 41.1635 44.5762 45.4584C44.5585 46.5252 44.5699 47.7371 44.6105 49.0942C44.6778 50.45 44.8023 51.963 44.9841 53.6332C45.0476 54.2164 45.1125 54.8129 45.1789 55.4226C45.2452 56.0323 45.3411 56.6673 45.4665 57.3275C45.4161 57.3566 45.3643 57.3724 45.311 57.3749C45.2578 57.3774 45.1512 57.3825 44.9914 57.3902C44.6185 57.408 44.1718 57.3627 43.6513 57.2544C43.1603 57.1712 42.6649 57.0483 42.1653 56.8857C41.6952 56.7482 41.2754 56.5818 40.9061 56.3862C40.5633 56.1894 40.3434 56.0134 40.2462 55.8582C40.182 55.5148 40.1312 55.1708 40.0937 54.8262C40.059 54.5081 40.0215 54.1634 39.9811 53.7923C39.8022 52.1487 39.6737 50.476 39.5956 48.7742C39.5441 47.0712 39.5667 45.3114 39.6635 43.4947C39.2877 43.486 38.792 43.483 38.1765 43.4858C37.5581 43.4621 36.8612 43.4554 36.0859 43.4658C35.3372 43.4749 34.5219 43.4872 33.64 43.5027C32.7819 43.4904 31.9385 43.4908 31.1099 43.5037C30.6005 44.7272 30.131 45.9488 29.7015 47.1685C29.2691 48.3617 28.9181 49.5643 28.6484 50.7763C28.3341 52.0704 28.0997 53.3607 27.9452 54.6472C27.8173 55.9324 27.774 57.1337 27.8153 58.2509ZM40.6364 33.6151C40.7025 33.2389 40.7676 32.7295 40.8315 32.0868C40.9192 31.4165 40.9906 30.7202 41.0459 29.9981C40.406 30.2685 39.7078 30.7415 38.9513 31.4172C38.2215 32.0917 37.469 32.927 36.6939 33.9234C35.9425 34.892 35.1789 35.9944 34.4031 37.2306C33.6511 38.4391 32.9344 39.7258 32.2529 41.0908C34.4702 40.7983 37.001 40.5574 39.8453 40.3682C39.9372 39.2446 40.0438 38.1336 40.1652 37.0352C40.3104 35.9091 40.4674 34.769 40.6364 33.6151Z" fill="black"/>
<path d="M16.5057 44.4489C16.6921 43.5514 16.8972 42.3994 17.1209 40.9929C17.3447 39.5863 17.5694 38.0734 17.795 36.4539C18.0142 34.8087 18.2402 33.136 18.4731 31.4361C18.6996 29.7103 18.9087 28.0794 19.1005 26.5434C19.2923 25.0074 19.4429 23.6354 19.5525 22.4273C19.6885 21.2163 19.7725 20.2901 19.8044 19.6487C18.3007 20.5031 17.122 21.6811 16.2684 23.1826C15.4147 24.6841 14.9391 26.5035 14.8416 28.6406C14.1806 28.4997 13.5343 28.1977 12.9025 27.7347C12.2644 27.2458 11.7665 26.6087 11.4089 25.8235C11.3795 24.6039 11.6011 23.4634 12.0736 22.402C12.5726 21.3377 13.2923 20.3957 14.2329 19.5758C15.1735 18.756 16.328 18.0857 17.6965 17.565C19.0585 17.0183 20.5747 16.6543 22.2448 16.473C24.3657 16.2427 26.3911 16.3418 28.321 16.7702C30.2445 17.1727 31.9769 17.8485 33.5184 18.7976C35.0598 19.7466 36.3773 20.9459 37.4709 22.3955C38.5644 23.8451 39.3417 25.5018 39.8027 27.3657C40.4301 29.9026 40.5516 32.3748 40.1671 34.7823C39.7825 37.1898 38.9861 39.363 37.7778 41.3018C36.596 43.2376 35.0595 44.8399 33.1682 46.1085C31.2834 47.4031 29.1612 48.1784 26.8017 48.4346C24.6278 48.6707 22.6532 48.4465 20.8778 47.7621C19.1352 47.1006 17.6779 45.9963 16.5057 44.4489ZM24.435 18.2288C23.1095 18.3728 21.895 18.6907 20.7917 19.1826C22.0606 19.4702 23.1371 19.8052 24.0211 20.1876C24.8988 20.5442 25.5155 20.8361 25.8711 21.0633C25.7294 21.3711 25.5362 21.9105 25.2913 22.6813C25.0729 23.4493 24.8134 24.3813 24.5128 25.4772C24.2387 26.5703 23.9504 27.7712 23.648 29.0799C23.3391 30.3628 23.0532 31.6831 22.7901 33.0407C22.0921 36.4924 21.6322 39.2005 21.4103 41.1651C21.2149 43.1268 21.2069 44.47 21.3862 45.1949C21.7893 45.284 22.2624 45.3257 22.8054 45.3199C23.3485 45.3141 23.9248 45.2781 24.5346 45.2119C26.682 44.9787 28.5916 44.2796 30.2635 43.1145C31.9555 41.9207 33.3156 40.4306 34.3438 38.6443C35.3985 36.8551 36.0711 34.8416 36.3615 32.6038C36.672 30.3372 36.5327 28.0131 35.9437 25.6316C35.2842 22.9652 33.9236 20.9864 31.862 19.6951C29.8003 18.4038 27.3247 17.915 24.435 18.2288Z" fill="black"/>
</svg>
