<svg width="40" height="45" viewBox="0 0 40 45" fill="none" xmlns="http://www.w3.org/2000/svg">
<path d="M11.63 27.66C10.43 27.66 9.36 27.04 8.42 25.8C7.14 26.18 5.97 26.37 4.91 26.37C3.75 26.37 2.84 26.15 2.18 25.71C1.52 25.29 1.19 24.76 1.19 24.12C1.19 23.62 1.4 23.08 1.82 22.5C2.24 21.92 2.89 21.35 3.77 20.79C4.13 20.57 4.52 20.35 4.94 20.13C5.38 19.91 5.85 19.71 6.35 19.53C6.29 18.89 6.26 18.21 6.26 17.49C6.26 15.85 6.44 14.05 6.8 12.09C7.16 10.11 7.76 7.98 8.6 5.7C7.12 6.44 5.76 7.32 4.52 8.34C3.28 9.34 2.32 10.37 1.64 11.43C1.42 11.79 1.15 11.97 0.83 11.97C0.61 11.97 0.5 11.86 0.5 11.64C0.5 11.48 0.59 11.24 0.77 10.92C0.93 10.6 1.22 10.2 1.64 9.72C2.44 8.8 3.48 7.91 4.76 7.05C6.04 6.19 7.44 5.45 8.96 4.83C9.3 3.89 9.69 2.97 10.13 2.07C10.25 1.81 10.43 1.68 10.67 1.68C10.83 1.68 10.96 1.74 11.06 1.86C11.18 1.96 11.24 2.09 11.24 2.25C11.24 2.33 11.22 2.43 11.18 2.55C11.06 2.83 10.94 3.11 10.82 3.39C10.72 3.67 10.62 3.95 10.52 4.23C10.8 4.13 11.09 4.04 11.39 3.96C11.69 3.88 11.98 3.8 12.26 3.72C13.82 3.36 15.21 3.18 16.43 3.18C18.03 3.18 19.35 3.45 20.39 3.99C21.43 4.53 22.2 5.27 22.7 6.21C23.2 7.13 23.45 8.18 23.45 9.36C23.45 10.58 23.19 11.87 22.67 13.23C22.17 14.59 21.43 15.96 20.45 17.34C19.47 18.7 18.25 19.99 16.79 21.21C15.35 22.43 13.7 23.51 11.84 24.45C10.86 24.93 9.93 25.32 9.05 25.62C9.53 26.12 10.02 26.47 10.52 26.67C11.02 26.87 11.43 26.97 11.75 26.97C12.03 26.97 12.23 26.91 12.35 26.79C12.53 26.59 12.72 26.49 12.92 26.49C13.06 26.49 13.18 26.53 13.28 26.61C13.38 26.69 13.43 26.78 13.43 26.88C13.43 27.04 13.3 27.19 13.04 27.33C12.8 27.45 12.56 27.53 12.32 27.57C12.08 27.63 11.85 27.66 11.63 27.66ZM8.75 25.26C9.21 25.1 9.69 24.9 10.19 24.66C10.71 24.44 11.24 24.17 11.78 23.85C14.04 22.55 15.91 21.09 17.39 19.47C18.89 17.83 20.01 16.17 20.75 14.49C21.51 12.81 21.89 11.25 21.89 9.81C21.89 8.09 21.37 6.68 20.33 5.58C19.29 4.46 17.73 3.9 15.65 3.9C14.65 3.9 13.52 4.05 12.26 4.35C11.92 4.43 11.58 4.53 11.24 4.65C10.9 4.75 10.56 4.87 10.22 5.01C9 8.21 8.16 10.98 7.7 13.32C7.24 15.64 7.02 17.62 7.04 19.26C8.02 18.92 9.07 18.65 10.19 18.45C11.33 18.25 12.51 18.15 13.73 18.15C13.95 18.15 14.17 18.16 14.39 18.18C14.63 18.18 14.87 18.19 15.11 18.21C15.37 18.23 15.5 18.29 15.5 18.39C15.5 18.55 15.2 18.63 14.6 18.63C14.34 18.63 14.07 18.62 13.79 18.6C13.53 18.58 13.27 18.57 13.01 18.57C11.89 18.57 10.82 18.68 9.8 18.9C8.78 19.12 7.86 19.4 7.04 19.74C7.1 21.08 7.29 22.2 7.61 23.1C7.93 23.98 8.31 24.7 8.75 25.26ZM5.75 25.8C6.45 25.8 7.25 25.68 8.15 25.44C7.73 24.8 7.36 24.03 7.04 23.13C6.74 22.21 6.52 21.17 6.38 20.01C5.42 20.49 4.64 21 4.04 21.54C3.58 21.94 3.24 22.34 3.02 22.74C2.8 23.14 2.69 23.51 2.69 23.85C2.69 24.41 2.96 24.87 3.5 25.23C4.04 25.61 4.79 25.8 5.75 25.8Z" fill="white"/>
<path d="M2.9 37.87C2.46 37.89 2.12 37.81 1.88 37.63C1.62 37.45 1.53 37.11 1.61 36.61C1.61 36.55 1.63 36.46 1.67 36.34C1.71 36.22 1.76 36.14 1.82 36.1C1.8 36.6 1.86 36.95 2 37.15C2.14 37.35 2.37 37.45 2.69 37.45C3.47 37.45 4.27 37.2 5.09 36.7C5.93 36.2 6.76 35.53 7.58 34.69C7.38 34.63 7.12 34.51 6.8 34.33C6.5 34.17 6.27 34.04 6.11 33.94C5.31 33.36 4.91 32.69 4.91 31.93C4.91 31.35 5.17 30.72 5.69 30.04C6.21 29.36 7.06 28.67 8.24 27.97C9 27.51 9.88 27.1 10.88 26.74C11.88 26.38 12.81 26.09 13.67 25.87C13.97 25.29 14.26 24.72 14.54 24.16C14.82 23.6 15.09 23.04 15.35 22.48C15.45 22.26 15.63 21.84 15.89 21.22C16.15 20.6 16.44 19.87 16.76 19.03C17.08 18.19 17.38 17.3 17.66 16.36C17.96 15.4 18.21 14.47 18.41 13.57C18.61 12.67 18.71 11.87 18.71 11.17C18.71 10.49 18.59 9.96 18.35 9.58C18.13 9.2 17.73 9.01 17.15 9.01H17.12C16.96 9.01 16.88 8.96 16.88 8.86C16.88 8.76 16.98 8.69 17.18 8.65C18.14 8.55 18.81 8.78 19.19 9.34C19.57 9.9 19.76 10.64 19.76 11.56C19.76 11.72 19.75 11.89 19.73 12.07C19.73 12.25 19.72 12.44 19.7 12.64C19.82 12.74 19.9 12.91 19.94 13.15C20.06 13.79 20.18 14.63 20.3 15.67C20.44 16.71 20.6 17.85 20.78 19.09C20.96 20.33 21.17 21.59 21.41 22.87C21.67 24.13 21.97 25.32 22.31 26.44C22.67 27.54 23.09 28.47 23.57 29.23C23.67 29.39 23.81 29.6 23.99 29.86C24.17 30.1 24.39 30.32 24.65 30.52C24.91 30.72 25.2 30.82 25.52 30.82C25.86 30.82 26.21 30.68 26.57 30.4C26.89 30.14 27.19 29.78 27.47 29.32C27.75 28.86 28.01 28.37 28.25 27.85C28.37 27.63 28.48 27.52 28.58 27.52C28.68 27.52 28.75 27.58 28.79 27.7C28.85 27.8 28.87 27.9 28.85 28C28.77 28.26 28.6 28.57 28.34 28.93C28.1 29.27 27.85 29.59 27.59 29.89C27.33 30.17 27.12 30.37 26.96 30.49C26.6 30.77 26.25 30.97 25.91 31.09C25.59 31.23 25.29 31.3 25.01 31.3C24.35 31.3 23.77 31.05 23.27 30.55C22.79 30.03 22.37 29.49 22.01 28.93C21.51 28.13 21.11 27.12 20.81 25.9C20.53 24.68 20.31 23.36 20.15 21.94C19.99 20.52 19.86 19.12 19.76 17.74C19.68 16.36 19.59 15.1 19.49 13.96C19.25 15.08 18.92 16.23 18.5 17.41C18.08 18.59 17.65 19.68 17.21 20.68C16.79 21.66 16.44 22.42 16.16 22.96C15.72 23.86 15.24 24.76 14.72 25.66C15.64 25.44 16.6 25.24 17.6 25.06C18.6 24.88 19.48 24.71 20.24 24.55H20.33C20.41 24.55 20.45 24.58 20.45 24.64C20.45 24.7 20.4 24.78 20.3 24.88C20.2 24.98 20.07 25.05 19.91 25.09C19.05 25.25 18.12 25.44 17.12 25.66C16.12 25.86 15.18 26.08 14.3 26.32C13.38 27.9 12.45 29.4 11.51 30.82C10.57 32.24 9.54 33.5 8.42 34.6C9.18 34.84 10.15 34.96 11.33 34.96H11.39C11.55 34.96 11.63 35 11.63 35.08C11.63 35.2 11.51 35.26 11.27 35.26C10.71 35.28 10.16 35.25 9.62 35.17C9.08 35.11 8.58 35.01 8.12 34.87C7.24 35.73 6.35 36.42 5.45 36.94C4.57 37.48 3.72 37.79 2.9 37.87ZM7.88 34.39C8.84 33.39 9.77 32.22 10.67 30.88C11.59 29.54 12.45 28.14 13.25 26.68C12.99 26.76 12.72 26.85 12.44 26.95C12.16 27.05 11.89 27.17 11.63 27.31C11.29 27.47 10.83 27.7 10.25 28C9.67 28.3 9.09 28.62 8.51 28.96C7.95 29.28 7.52 29.57 7.22 29.83C6.82 30.19 6.53 30.54 6.35 30.88C6.17 31.22 6.08 31.55 6.08 31.87C6.08 32.15 6.13 32.42 6.23 32.68C6.35 32.94 6.49 33.19 6.65 33.43C6.75 33.55 6.93 33.71 7.19 33.91C7.47 34.13 7.7 34.29 7.88 34.39Z" fill="white"/>
</svg>
